<svg width="391" height="780" viewBox="0 0 391 780" fill="none" xmlns="http://www.w3.org/2000/svg">
<rect width="390.67" height="592.525" transform="translate(0.263672 150.264)" fill="#FFF8F0"/>
<path fill-rule="evenodd" clip-rule="evenodd" d="M270.27 388.609C276.525 388.749 273.843 330.391 269.666 319.637C269.081 317.458 268.598 314.48 268.695 311.805C273.861 312.322 273.305 308.786 273.038 304.523C273.126 301.137 273.361 294.152 268.18 296.872C252.647 265.774 269.442 185.385 228.543 177.813C223.615 176.616 218.522 175.378 214.372 171.961C209.982 163.845 207.746 162.808 200.471 162.283C199.123 154.973 196.605 147.163 189.101 144.319C182.231 141.626 174.235 141.412 167.071 142.848C161.142 144.782 160.599 155.804 159.282 161.238C151.296 159.12 141.454 154.666 137.155 164.763C135.072 164.141 133.143 164.545 131.027 165.237C113.291 168.095 96.0839 176.118 89.5058 192.859C85.4425 202.905 88.3262 213.841 89.85 224.246C91.2713 235.575 87.5236 246.071 85.7864 256.969C83.1998 271.975 82.732 284.011 84.42 295.165C79.9583 296.18 79.6293 300.238 81.4344 304.484C81.9644 305.921 82.4984 307.436 83.6705 308.249C86.0548 309.75 89.1365 308.02 91.7277 307.755C92.2667 313.748 93.3104 319.627 95.0373 326.31C94.5371 328.31 93.9636 330.544 93.4485 332.553L93.2747 332.364C87.3588 357.144 69.7642 381.214 75.2326 407.55C75.5541 408.427 76.1643 408.245 76.6328 408.229C79.3474 409.262 81.8408 408.606 84.5783 408.712C91.0714 408.716 97.3446 409.548 103.164 410.272C104.228 417.221 107.686 428.598 113.854 431.248C113.958 431.283 115.786 430.902 115.939 430.891C99.5197 497.467 69.9773 559.029 58.2424 626.947C58.1729 627.776 59.5215 627.337 59.9639 627.438C59.9034 629.322 61.1211 629.776 62.8262 630.446C60.6289 635.039 58.6496 639.627 56.4623 644.232C55.448 646.512 53.795 648.764 53.4938 651.201C51.0723 652.748 49.4413 655.773 49.4845 658.597C42.9545 661.357 44.7293 674.989 43.2395 681.742C41.7331 691.8 34.5677 698.825 29.6547 707.072C28.6535 708.728 27.5873 710.897 27.54 712.976C24.4943 714.404 23.3586 717.523 23.5601 722.773C23.5493 728.916 25.2819 731.255 29.9538 731.403C42.6436 732.671 57.4514 732.155 70.2148 730.713C79.7628 729.499 88.2236 730.506 86.0889 719.033C85.6496 716.256 86.4934 712.516 84.8496 710.268C83.8361 703.577 84.4258 696.833 86.6112 690.222C87.9398 684.656 90.1845 673.159 89.2544 665.689C88.8242 662.234 81.7717 660.333 80.5303 660.165C80.9252 657.564 80.7513 653.02 79.3521 651.213C81.9215 650.854 82.5674 650.175 83.1025 647.321C84.3814 642.699 84.5515 637.681 87.7184 633.787C93.4142 633.861 99.091 632.415 104.784 632.239L105.067 631.585C108.434 631.542 111.782 630.947 114.978 629.781C115.687 630.116 116.593 630.404 116.992 629.331L118.893 623.386C141.023 552.96 165.553 482.363 189.472 412.453C190.868 409.054 192.547 405.441 194.73 402.412C195.47 445.188 204.431 487.918 205.2 530.672C206.24 560.085 205.972 589.188 208.739 618.705C209.451 624.952 210.208 624.745 211.141 624.361C211.514 624.42 212.394 624.607 212.775 624.687C212.151 630.895 211.434 640.972 208.772 647.321C202.887 648.229 203.941 652.744 205.246 656.487C203.842 657.686 204.042 660.481 204.459 662.028C198.922 662.034 197.715 666.537 198.096 669.379C198.623 674.131 198.328 681.527 201.499 685.586C203.367 690.762 206.407 695.647 207.594 701.223C208.34 705.326 208.052 711.302 208.772 715.372C206.961 716.208 207.728 717.52 207.423 720.057C205.856 731.669 211.372 729.695 221.127 730.495C226.974 731.786 271.485 734.355 269.561 726.629C269.889 723.483 268.426 722.101 267.799 719.003C267.518 718.181 261.973 708.666 258.665 705.064C247.571 694.641 248.056 680.647 248.407 664.528C247.755 660.159 244.394 655.976 240.106 656.446C241.337 651.78 239.055 647.723 234.286 646.374C234.762 641.091 235.264 633.913 237.008 629.343L235.365 627.67L237.564 627.933L238.294 626.095L239.09 628.109C242.864 628.109 247.123 627.272 250.739 626.878C251.317 626.911 251.059 626.126 251.154 625.823C254.568 625.116 254.942 623.302 254.339 618.979C255.134 548.784 254.789 479.248 253.702 408.923C259.038 409.161 264.242 407.214 269.486 405.917C271.349 407.087 271.877 402.923 271.659 402.024C271.364 397.371 270.788 392.833 270.27 388.609Z" fill="#FFF8F0"/>
<path fill-rule="evenodd" clip-rule="evenodd" d="M160.679 151.449C161.473 152.075 161.39 153.811 161.468 154.783L161.473 154.847C161.723 157.782 161.385 160.731 160.67 163.58L160.559 164.015C160.217 165.377 159.877 167.01 158.807 167.944C157.592 169.005 155.661 168.318 155.618 166.607C155.595 165.812 155.861 165.046 156.197 164.3C153.842 165.209 151.488 166.107 149.124 166.984C147.613 179.472 165.06 194.762 175.162 200.115C189.872 208.258 202.249 195.786 204.132 181.125C204.449 179.177 204.661 177.176 204.702 175.202L204.705 175.012C204.713 173.38 204.442 171.197 205.506 169.84C204.723 169.821 204.027 169.931 203.261 170.051L203.298 170.115C203.732 170.891 204.346 172.824 202.971 172.971C200.001 172.659 198.62 167.454 197.897 164.957L197.868 164.849C197.401 162.978 196.806 156.188 198.213 155.373C198.646 157.049 198.476 158.868 199.002 160.548C200.2 161.031 202.481 161.161 203.01 161.25C209.18 161.322 212.678 165.751 215.179 170.935C222.511 176.952 233.049 175.918 240.966 180.873C265.191 198.432 257.279 266.79 269.345 295.871C271.761 294.871 274.224 296.873 274.546 299.315C274.88 301.193 274.78 303.205 274.807 305.108L274.818 305.346C275.016 309.238 275.689 313.612 270.431 313.697C270.44 315.87 270.849 317.974 271.374 320.071C274.285 332.768 275.555 345.845 275.842 358.861L275.856 359.817C275.951 366.658 276.035 387.822 272.102 390.326L272.285 391.817C272.74 395.545 273.169 399.283 273.409 403.03C273.786 404.975 272.502 409.635 269.881 408.401C265.075 409.59 260.335 411.344 255.34 411.353C256.55 451.609 255.949 491.906 256.128 532.178C255.742 561.864 257.347 591.795 255.944 621.367L255.995 621.784C256.391 625.105 256.51 627.992 252.672 629.129C252.616 629.942 251.991 630.376 251.25 630.471C249.146 630.754 247.042 631.022 244.936 631.281C242.974 631.427 240.875 631.915 238.919 631.682C239.108 631.873 238.595 631.903 238.539 631.763C236.757 636.237 236.239 641.113 235.798 645.885C240.125 647.534 242.487 651.244 241.78 655.895C246.146 656.071 249.335 660.922 249.947 665.011C250.339 667.832 250.025 670.634 249.898 673.46C249.294 683.119 250.714 693.524 256.95 701.228C260.997 706.064 266.267 710.438 268.033 716.735C268.513 716.959 268.907 717.393 269.08 718.07L270.201 722.467V722.467L270.758 724.665C271.166 726.268 271.528 727.908 271.31 729.567L271.287 729.728C270.195 740.237 227.105 735.172 218.695 734.417C215.315 733.887 211.605 734.176 208.561 732.386C204.827 729.922 204.361 724.923 205.001 720.83L205.055 720.446C205.314 718.615 205.694 716.696 207.431 715.672C206.847 711.879 207.073 707.997 206.377 704.219C205.327 698.873 202.149 694.234 200.526 689.101C198.159 686.469 198.08 682.367 197.585 679.002C197.21 675.738 196.903 672.451 196.777 669.167C196.433 664.826 198.318 661.245 202.883 660.678C202.671 659.856 203.251 659.145 203.828 658.618C202.467 653.784 202.091 647.147 207.996 645.498C210.233 639.953 210.883 633.943 211.478 628.029C211.408 628.014 211.337 628.002 211.266 627.989C208.561 629.116 207.826 624.294 207.573 621.748L207.517 621.14C204.732 591.705 204.989 562.097 203.943 532.572L203.841 530.437C202.924 510.983 202.378 491.358 199.014 472.164C195.627 450.771 194.742 429.029 193.585 407.412C192.221 409.53 191.488 411.962 190.385 414.219C176.069 456.275 161.38 498.205 147.227 540.319C136.969 570.81 127.168 601.462 117.339 632.096C116.837 633.664 115.257 633.989 114.1 633.487C111.156 634.508 108.067 635.088 104.957 635.188C104.77 635.619 104.385 635.934 103.823 635.872C102.16 635.69 100.246 636.21 98.583 636.404C94.7778 636.78 91.0836 637.363 87.2436 637.418C84.8647 640.426 84.7152 644.504 83.6183 648.083C82.9869 649.908 83.086 654 80.9056 654.514C81.6872 655.718 81.7895 657.163 81.6628 658.652C82.341 658.806 83.0288 659.097 83.6668 659.396C84.2881 659.71 85.1089 659.683 85.537 660.316C97.7155 662.524 88.8155 685.648 86.6987 693.296C84.621 699.548 83.9704 706.079 84.9185 712.607C86.3678 714.608 85.8825 717.586 86.1043 719.958C86.2209 722.075 86.4352 724.224 86.416 726.344C86.1793 735.15 75.3078 733.717 69.1744 734.86C65.3446 735.305 61.4972 735.616 57.6501 735.857C47.8931 736.463 38.0813 736.51 28.3442 735.566C22.0573 735.367 20.7055 731.266 20.7155 725.657L20.7059 725.425C20.5642 721.618 21.1781 717.021 24.7939 715.042C24.9741 713.03 25.9945 710.999 27.0364 709.241C31.8813 701.096 39.1555 693.959 40.5863 684.184C41.9897 677.785 40.3997 663.699 46.905 660.363C47.056 657.482 48.8259 654.545 51.0175 652.987C51.4404 650.587 53.0338 648.381 54.0197 646.175C56.0304 641.964 57.8904 637.686 59.8904 633.472C58.8432 633.029 57.7305 632.214 57.5844 631.057C56.579 631.069 55.5856 630.419 55.7073 629.196C56.0624 625.643 56.8395 622.15 57.5735 618.659L57.665 618.223C70.7242 555.1 97.6919 496.073 113.47 433.759C111.347 434.143 109.362 431.715 108.188 430.135C104.397 425.031 102.158 418.855 101.174 412.589L99.3916 412.368C93.4488 411.638 87.4766 411 81.4841 411.171L80.0399 411.22C78.4354 411.269 76.8282 411.256 75.303 410.679C74.2389 410.777 73.131 410.206 72.8681 409.012C68.4298 386.894 79.3392 365.903 87.1535 345.916C88.9943 341.002 90.3045 336.017 91.5536 330.928C91.5947 330.763 91.8528 330.798 91.8457 330.968C91.6023 336.625 90.1995 342.329 88.7749 347.782C84.0972 366.272 74.3521 384.404 76.7347 403.98C84.1408 398.147 92.9371 394.096 102.177 392.382C102.71 390.065 103.299 387.766 103.742 385.434C103.306 381.85 103.009 378.248 102.63 374.646C101.495 363.873 99.7615 353.127 97.4508 342.543C93.8662 331.894 90.7367 321.1 89.6176 309.872L89.4139 309.912C86.9286 310.416 84.1904 311.511 81.8847 309.928C80.4213 308.914 79.788 307.233 79.1968 305.618C77.5077 301.702 77.1953 296.555 81.9745 294.918C80.1929 282.469 81.3505 269.473 83.5039 257.14C85.228 246.331 89.0106 235.68 87.5947 224.614C86.0227 213.98 83.0916 202.842 87.3288 192.433C94.2926 175.06 111.927 166.818 129.27 164.165L129.551 164.082C131.696 163.447 133.65 162.778 135.885 163.259C141.158 153.475 149.709 157.455 158.06 159.635C158.623 157.976 159.093 156.279 159.535 154.583C159.81 153.719 159.719 151.726 160.679 151.449ZM209.011 720.419L208.989 720.845C208.769 725.426 209.017 729.351 214.697 729.321C218.605 729.738 222.514 730.144 226.428 730.498L227.896 730.628C239.514 731.664 251.271 732.171 262.867 730.615L263.35 730.549C264.319 730.411 266.114 730.438 266.881 729.722C267.806 728.478 266.735 726.105 266.511 724.66C248.418 724.45 230.301 723.782 212.196 724.013C210.292 724.023 209.432 722.395 209.608 720.913C209.393 720.768 209.191 720.601 209.011 720.419ZM25.3135 718.122C24.4238 721.25 24.6429 724.206 25.1455 727.338C25.3967 730.619 26.9573 730.829 29.7812 730.906C40.8056 731.923 51.9096 731.71 62.9369 730.857C68.8473 730.22 74.9209 730.244 80.7212 728.936C83.4885 727.71 81.891 723.854 81.9852 721.489C68.9586 729.884 49.2578 728.818 35.0527 723.961L34.8251 723.864C31.4649 722.452 27.1695 721.564 25.3135 718.122ZM46.8907 661.638C45.3931 663.327 45.3619 668.139 45.2991 669.776L45.2912 669.959C45.123 673.399 45.1497 676.845 45.0007 680.284C45.1105 694.768 36.747 701.991 30.5359 713.636C28.837 716.462 31.3084 716.863 33.3187 717.779C46.3358 723.837 61.7332 724.763 75.3322 720.125C82.1679 718.139 80.6756 713.539 80.0951 707.912C79.5236 696.414 85.5738 686.055 87.3634 674.932L87.4116 674.644C87.9452 671.379 88.8672 663.01 83.6646 664.799C82.5326 665.496 81.4683 664.622 81.3347 663.554C81.1998 663.576 81.0615 663.588 80.928 663.59C80.3264 667.308 79.7031 671.02 79.1043 674.738C79.6081 675.058 80.0805 675.42 80.4993 675.833C81.0082 676.338 80.6527 677.397 79.8857 677.333C79.4915 677.298 79.1019 677.239 78.7145 677.165C78.4075 680.397 73.2752 678.584 74.7578 675.993C67.3787 673.444 59.2491 673.647 51.7556 675.602L51.7246 675.615C51.1445 675.846 46.9731 676.682 48.3151 677.333C48.8744 677.4 47.6009 678.132 47.3777 677C47.3056 675.579 50.5479 674.882 51.5413 674.292C49.0358 670.706 47.3238 666.059 46.8907 661.638ZM235.934 650.284C228.983 646.52 220.44 647.917 212.901 648.583L212.584 648.619C210.665 648.825 207.991 648.953 207.11 650.929C205.835 654.095 207.949 661.179 208.613 664.701L208.839 665.624C209.389 667.879 209.912 670.115 210.101 672.446C210.105 672.52 210.035 672.571 209.969 672.571C207.328 669.75 206.141 665.955 204.907 662.335C204.381 662.635 203.867 662.96 203.383 663.317C201.49 669.822 200.856 676.748 202.355 683.384L202.409 683.618C204.26 691.818 210.025 698.525 210.573 707.095C210.939 710.559 210.857 714.109 211.853 717.474C212.42 717.599 212.915 718.017 213.137 718.542L216.386 718.546C232.093 718.573 247.805 718.715 263.502 719.362C262.996 714.948 259.1 711.031 256.356 708.005C247.936 699.382 244.294 686.994 245.681 675.055C246.411 669.083 249.744 659.699 241.591 657.492C240.995 662.36 240.19 667.212 239.745 672.099C241.284 672.841 241.189 674.798 239.309 674.76C238.465 677.599 235.636 676.451 235.942 673.773C225.594 669.951 219.657 668.67 209.577 674.428C209.294 674.386 210.351 673.255 210.485 673.054C213.671 669.619 218.563 668.004 223.154 667.946C227.704 667.945 231.983 669.66 236.276 670.986C236.921 666.375 237.355 661.735 237.867 657.108L237.977 656.116C238.245 653.686 238.148 651.68 235.934 650.284ZM69.6419 709.835C71.1564 709.498 72.5493 708.986 74.0879 709.333C79.5031 713.401 57.3767 714.548 55.4928 714.259C50.6968 714.118 45.8988 713.509 41.2832 712.154L40.9614 712.058C40.5069 711.931 35.9062 710.65 36.7786 710.078C43.0214 710.632 49.1331 711.778 55.4928 711.479C58.6654 711.413 61.8503 711.189 64.9888 710.711C66.5496 710.472 68.103 710.182 69.6419 709.835ZM215.93 704.795C214.938 703.309 219.771 705.283 220.4 705.3C224.402 706.287 228.475 707.035 232.587 707.346C235.343 707.555 238.128 707.599 240.889 707.464C242.934 707.393 244.957 707.091 246.989 706.883L247.062 706.879C248.269 706.837 250.688 707.586 249.197 709.023C246.879 710.821 243.449 710.273 240.67 710.537C232.232 710.509 223.297 709.151 215.93 704.795ZM57.2951 693.995C59.7275 693.554 73.1172 693.41 71.7824 697.52C71.4585 698.301 70.7183 698.559 69.9392 698.436C61.6526 696.42 52.7136 695.366 44.4533 698.146C44.3194 698.192 44.2269 697.973 44.3584 697.914C48.4197 695.879 52.7655 694.456 57.2951 693.995ZM231.091 689.977C233.278 689.811 235.477 689.87 237.664 690.034L238.559 690.104C239.482 690.178 240.425 690.274 241.306 690.542L241.481 690.598C242.682 690.985 245.389 693.049 243.334 694.042C241.128 694.756 239.263 693.906 237.135 693.359C231.203 691.954 224.967 692.43 219.09 693.867L219.918 694.133V694.133C219.969 694.096 220.035 694.182 219.986 694.224C219.392 694.743 218.576 694.559 218.155 693.914C218.082 693.803 218.128 693.626 218.245 693.564C222.229 691.474 226.621 690.317 231.091 689.977ZM46.3359 689.453C53.0352 686.487 60.7971 686.159 67.9817 687.019L68.4935 687.082C70.735 687.345 73.6585 687.465 74.9408 689.554C75.3839 690.277 74.9262 691.107 74.2103 691.368C72.102 692.139 69.623 690.595 67.5974 690.021C61.6072 688.381 55.21 688.208 49.1189 689.342C49.1615 689.567 48.1528 689.469 47.9331 689.549C47.6578 689.533 45.8306 690.138 46.3359 689.453ZM215.276 684.822C221.121 681.979 227.878 681.301 234.188 682.769L234.45 682.844C237.246 683.629 241.747 684.555 242.749 687.515C242.966 688.182 242.496 689.083 241.792 689.219C239.408 689.674 237.244 687.934 235.087 687.097C228.74 684.711 221.555 684.14 214.991 685.895C214.948 686.154 214.904 686.41 214.857 686.668C214.97 686.595 215.086 686.759 214.996 686.851C213.949 687.584 212.859 685.732 215.276 684.822ZM61.3947 679.824C66.1236 679.51 70.8923 680.111 75.4576 681.359L76.3161 681.595C77.5638 681.945 79.1801 682.496 79.3617 683.845C79.4323 684.381 79.2984 684.751 78.8625 685.083C77.2733 686.272 73.8167 683.781 71.8406 683.488C64.6667 681.332 56.9662 681.363 49.6992 683.012L49.4517 683.069L49.627 684.317C49.7991 684.914 48.2021 683.507 48.8089 682.867C52.645 680.913 57.1213 680.176 61.3947 679.824ZM219.735 677.594C223.53 676.909 227.446 676.778 231.283 677.123L231.736 677.165C234.028 677.368 241.452 677.663 239.696 681.537C239.402 682.185 238.547 682.269 237.994 681.988C236.139 681.048 234.11 680.708 232.063 680.398C224.833 679.391 217.446 679.804 210.387 681.752C210.541 681.993 210.224 682.278 209.925 682.335C209.18 682.473 209.18 681.584 209.499 681.112C209.879 680.553 210.636 680.348 211.22 680.102C213.938 678.917 216.821 678.117 219.735 677.594ZM75.9879 656.035L75.5556 655.932C68.3128 654.228 52.255 651.171 50.5921 661.151C50.0019 665.546 51.9488 669.834 51.8049 674.186C59.3153 671.131 67.6204 671.163 75.4232 673.182C76.1145 668.665 76.7743 664.142 77.4805 659.627L77.5946 659.087C77.909 657.564 78.0157 656.373 75.9879 656.035ZM59.8559 657.852C61.4342 656.498 64.0663 656.517 65.6144 657.995C67.0302 658.292 68.0288 659.795 68.0517 661.084C70.2043 664.869 67.6085 670.098 63.4987 671.043C54.2184 672.999 50.0698 660.248 59.8559 657.852ZM220.641 651.813C228.406 650.425 231.227 660.279 224.854 664.275C215.851 668.792 209.853 654.59 220.641 651.813ZM63.6979 629.927C63.8123 630.68 63.4417 631.216 62.9991 631.724C61.4071 638.252 59.0112 644.327 56.6489 650.585C64.3341 649.31 71.5951 650.422 78.395 652.51C78.4763 650.6 79.3463 648.621 79.9507 646.82C81.1273 643.402 82.55 640.072 84.1908 636.855L84.397 636.453C84.9862 635.309 85.5535 634.112 86.2497 633.017C78.7281 631.989 71.2065 631.064 63.6979 629.927ZM215.182 628.536L214.981 629.444C214.118 633.384 213.299 637.362 212.014 641.19L211.996 641.269C211.799 642.235 211.357 646.708 211.079 643.551C210.864 644.026 210.636 644.496 210.392 644.959L212.255 644.737C219.201 643.921 226.448 643.271 233.26 645.016C232.554 639.537 233.594 634.302 235.113 629.122C228.455 628.969 221.855 629.018 215.182 628.536ZM89.0819 635.346C88.8384 635.575 88.6001 635.809 88.3734 636.052C88.6804 635.974 88.9872 635.897 89.2718 635.831C89.2601 635.651 89.133 635.515 89.0819 635.346ZM239.139 630.321L238.922 630.83V630.83C239.034 630.764 239.158 630.7 239.292 630.643C239.231 630.545 239.18 630.439 239.139 630.321ZM59.5843 629.203C59.5056 629.495 59.4455 629.816 59.304 630.082C59.416 630.102 59.5305 630.124 59.6452 630.148C59.7837 629.868 59.93 629.594 60.0881 629.326C59.9201 629.287 59.7521 629.247 59.5843 629.203ZM117.501 306.112C116.819 306.442 116.108 306.526 115.169 306.565C107.532 306.882 99.9204 307.767 92.422 309.276C92.8359 315.345 94.6816 321.223 96.4378 327.009L96.8021 328.277C102.736 349.006 107.916 370.668 106.873 392.35C106.931 392.372 106.987 392.402 107.041 392.429C106.946 392.694 106.878 392.966 106.783 393.23L106.722 393.386L106.366 394.272C106.169 394.763 105.978 395.256 105.811 395.762C105.52 395.867 105.162 395.944 104.82 395.993C103.088 407.472 104.735 420.343 112.542 429.32C109.759 423.716 108.788 417.35 108.91 411.124L108.932 410.172C108.964 408.996 109.035 407.824 109.393 406.708C109.408 406.648 109.486 406.658 109.505 406.708C111.158 411.814 111.266 417.361 112.89 422.505L113.014 422.9C114.298 426.931 116.443 432.121 120.167 434.204C120.853 434.409 121.908 434.167 122.264 434.957L122.288 435.014L122.31 435.007C120.647 429.558 119.577 423.924 119.21 418.236L119.186 417.848C119.069 415.863 118.811 413.736 119.306 411.799C120.248 413.57 120.014 416.465 120.452 418.608L120.47 418.731C120.816 421.047 124.15 438.757 126.34 436.391C126.792 435.738 126.675 434.476 126.689 433.699L126.69 433.623C126.725 432.501 126.712 431.378 126.674 430.256C126.437 423.642 125.41 416.855 127.423 410.413C127.76 409.327 129.586 409.123 129.807 410.413C130.694 415.573 131.541 420.738 132.388 425.903C133.006 429.058 132.98 432.616 134.857 435.337C134.879 429.397 134.55 423.473 134.265 417.54L134.189 417.293C133.964 416.544 133.742 415.572 134.258 414.935C134.465 413.581 136.442 413.736 136.61 415.154C136.647 415.45 136.673 415.75 136.703 416.048C137.358 416.87 137.967 417.71 138.741 418.416C143.911 407.855 126.995 389.614 124.66 377.687C117.782 354.46 121.736 330.107 123.737 306.455C121.668 306.21 119.583 306.144 117.501 306.112ZM215.934 172.434C219.55 179.697 222.204 187.383 224.043 195.293C224.609 197.735 221.336 199.234 220.013 197.094L219.974 197.028C218.348 194.313 215.924 191.922 212.857 190.987C210.767 199.756 211.785 209.022 212.871 217.876C214.797 230.211 216.329 242.599 216.558 255.099L216.569 255.769C217.24 298.457 223.509 340.954 230.376 382.749C241.353 384.513 251.402 389.491 261.52 393.866C263.278 394.553 265.075 395.152 266.916 395.565C261.832 348.18 242.498 303.742 236.524 256.53C234.945 244.251 234.871 231.782 237.052 219.575C237.089 219.341 237.42 219.42 237.434 219.626C237.674 224.641 238.531 229.59 239.039 234.577C239.385 231.729 240.183 228.844 240.829 226.113C241.618 223.442 241.909 219.154 244.221 217.413L244.366 216.908V216.908C244.427 216.692 244.749 216.783 244.698 216.999C244.674 217.103 244.649 217.204 244.627 217.307C246.112 217.702 244.725 219.465 244.357 220.308C241.974 226.707 241.265 233.634 239.638 240.23C241.992 260.82 246.231 281.149 251.452 301.162C256.249 299.895 261.062 298.675 265.871 297.437C255.144 262.437 261.417 223.376 245.345 189.956C239.324 178.74 224.495 180.264 215.934 172.434ZM134.433 166.036C132.184 165.915 129.834 167.139 127.674 167.56C124.811 168.116 121.962 168.557 119.162 169.411C104.829 173.349 91.0009 184.101 88.4043 199.594C86.6196 210.232 91.0389 220.596 90.8835 231.204C90.4172 241.714 86.959 251.815 85.6115 262.219C83.9906 272.858 83.4326 283.994 84.8229 294.684C97.6802 291.029 111.108 290.8 124.292 292.688C123.193 276.484 124.636 260.201 125.434 244.009C126.009 233.61 126.992 223.164 126.644 212.745C126.637 212.514 127.012 212.457 127.048 212.689C131.002 233.968 128.683 255.569 128.283 277.03C128.029 282.452 128.699 287.926 128.429 293.318C134.423 294.611 134.206 301.616 132.373 306.233C132.048 307.344 130.946 307.151 130.053 307.016C129.086 308.035 126.778 306.705 125.463 306.706C124.434 333.343 118.18 361.796 130.995 386.693C136.353 386.723 141.511 384.87 146.718 383.819L147.002 383.763L147.009 383.76C147.775 382.761 148.149 381.156 148.251 379.981C148.979 359.467 146.702 338.906 148.034 318.39C149.666 295.617 154.735 272.984 152.391 250.058C150.769 229.567 146.319 209.448 144.174 189.018L144.066 187.961C143.932 186.702 143.881 185.31 143.26 184.35C139.641 187.654 136.605 191.583 134.431 196.004C133.227 198.14 130.003 197.189 129.953 194.778C129.49 190.474 129.421 186.153 129.891 181.847L129.934 181.467C130.516 176.077 132.141 170.933 134.433 166.036ZM268.959 313.875C264.298 314.122 259.632 314.64 254.963 314.579L255.433 316.346C261.085 337.554 267.103 358.724 270.651 380.424L270.78 378.389C270.908 376.354 271.031 374.318 271.111 372.278C272.118 352.776 270.58 333.3 268.959 313.875ZM147.636 178.523C147.655 179.404 147.699 180.283 147.768 181.159C149.922 184.398 149.73 188.702 150.212 192.427C152.915 212.546 156.896 232.581 158.237 252.909C159.485 269.17 157.447 285.374 155.365 301.472C152.796 319.908 153.065 338.535 153.662 357.096C163.532 348.141 177.56 346.57 190.012 343.789L190.605 343.668C200.18 341.703 209.735 338.854 217.87 333.257C212.02 291.312 213.397 248.826 207.415 206.918C207.23 203.618 207.192 200.299 207.466 197.002C207.203 193.432 207.125 189.842 207.118 186.263C204.496 196.837 195.713 207.053 184.205 206.719C171.961 205.999 161.568 195.947 153.584 187.331C151.42 184.761 149.268 181.76 147.636 178.523ZM255.323 313.894L254.77 313.867L254.804 313.988V313.988C254.918 313.965 255.034 313.944 255.149 313.924L255.323 313.894ZM270.511 299.571C270.424 299.544 270.275 299.544 270.109 299.551C269.871 300.103 269.389 300.558 268.829 300.708L264.157 301.974C260.263 303.028 256.367 304.078 252.467 305.098C253.121 307.629 253.786 310.16 254.458 312.688C259.778 310.966 265.669 311.357 271.093 310.248C271.027 307.327 270.868 304.391 270.818 301.464C270.806 300.987 270.903 300.219 270.66 299.79C270.507 299.517 270.66 299.618 270.511 299.571ZM91.7969 309.404L91.6505 309.436V309.436C91.6992 309.569 91.7433 309.702 91.7847 309.837C91.7871 309.692 91.7893 309.549 91.7969 309.404ZM126.433 295.347C116.41 293.881 106.216 293.014 96.1064 294.012C91.5337 294.634 86.8918 295.298 82.4104 296.147C80.8518 298.552 82.576 304.404 84.5163 306.255C85.0983 306.477 86.099 306.046 86.6566 305.92C90.8404 304.971 95.065 304.206 99.3109 303.609C99.4373 303.769 99.6223 303.872 99.8512 303.85L100.827 303.759C106.683 303.223 112.59 302.83 118.459 303.166L118.502 303.2V303.2C122.462 303.491 126.407 304.118 130.35 304.571C131.907 300.48 131.639 295.785 126.433 295.347ZM199.365 161.905C199.753 163.223 200.218 164.505 200.797 165.75C201.401 165.582 202.235 165.717 202.679 166.1L202.868 166.066C203.388 165.966 204.012 165.815 204.174 165.797C211.336 164.801 210.79 174.434 210.816 179.276C210.86 181.703 210.909 184.133 210.982 186.561C213.032 185.859 215.772 187.12 217.563 188.237C216.161 183.542 214.512 178.924 212.674 174.387L212.326 173.503C210.878 169.842 209.274 166.135 206.197 163.586C203.858 162.971 201.592 162.859 199.365 161.905ZM147.438 159.488C140.782 157.1 138.145 162.526 136.299 167.936C134.122 173.929 133.528 180.526 133.89 186.974L134.115 186.676C136.564 183.393 140.095 177.974 144.56 178.845C144.516 176.354 144.606 173.618 145.081 171.031C144.804 169.362 144.733 167.675 144.926 165.989C145.027 163.875 147.318 164.195 148.826 163.896C150.131 163.022 151.711 162.67 153.299 163.286C154.497 163.126 155.695 162.973 156.893 162.821C157.077 162.414 157.225 162.006 157.38 161.59C154.064 160.901 150.75 160.19 147.438 159.488Z" fill="black"/>
<path fill-rule="evenodd" clip-rule="evenodd" d="M182.429 60.499C195.913 60.499 209.861 70.9303 214.804 77.5868C220.52 85.2837 225.028 122.233 222.913 134.77C220.798 147.308 210.292 160.973 192.053 160.973C173.814 160.973 162.715 158.731 162.27 155.475C161.824 152.218 150.24 134.092 150.24 134.092C150.24 134.092 138.391 130.766 138.345 122.822C138.299 114.878 144.694 111.987 144.694 111.987C144.694 111.987 142.414 80.6357 148.157 72.4732C153.9 64.3108 168.944 60.499 182.429 60.499Z" fill="#FFF8F0"/>
<path fill-rule="evenodd" clip-rule="evenodd" d="M175.562 57.3565L175.803 57.3575C190.723 57.4537 205.897 64.3054 214.774 76.2744L215.041 76.6387C215.055 76.6576 215.321 77.0522 215.384 77.1647C215.752 77.8236 216.185 78.4401 216.518 79.1103C216.798 79.6791 216.985 80.3145 217.191 80.9204L217.254 81.1012C217.784 82.6133 218.23 84.1396 218.624 85.692C219.389 88.7139 219.985 91.7832 220.565 94.8454C222.636 105.81 223.99 116.932 224.672 128.068L224.807 130.308C224.945 132.63 225.049 134.962 224.787 137.277C224.485 139.972 223.709 142.501 222.533 144.942C221.45 147.194 220.054 149.279 218.456 151.197C217.601 152.223 216.694 153.221 215.577 153.972C214.689 154.57 213.651 154.963 212.651 155.342C211.025 156.963 208.937 158.189 206.897 159.168C203.534 160.777 199.889 161.666 196.201 162.111C192.429 162.564 188.62 162.455 184.879 161.808C181.305 161.192 177.474 159.615 175.273 156.613C175.083 156.354 175.437 156.11 175.669 156.217C182.058 159.168 189.237 159.938 196.201 159.006C199.449 158.573 202.646 157.677 205.612 156.285C208.115 155.112 210.227 153.406 212.473 151.861C212.91 151.28 213.352 150.709 213.856 150.178L214.641 149.355C215.229 148.738 215.805 148.112 216.33 147.436C217.95 145.352 219.291 142.989 220.178 140.503C221.901 135.663 221.435 130.41 221.13 125.366L221.104 124.922C220.79 119.528 220.279 114.152 219.572 108.796C218.864 103.432 217.964 98.09 216.9 92.7858C216.375 90.1715 215.786 87.5739 215.266 84.9597C214.998 83.6111 214.81 82.2436 214.606 80.8807C214.482 80.0512 214.485 79.2525 214.482 78.4419C214.459 78.4798 214.43 78.5154 214.402 78.5509C214.487 78.7524 214.428 79.0107 214.219 79.1292C213.428 79.5796 212.516 79.4279 211.626 79.4302C210.68 79.435 209.735 79.4374 208.79 79.4397C207.805 79.4433 206.821 79.4433 205.837 79.4418L202.883 79.435L191.071 79.3994C183.335 79.3763 175.467 79.6833 167.756 78.9555L167.167 78.8975C166.561 78.8278 159.723 77.9933 157.874 77.7777L157.818 77.7712C154.438 77.3825 151.106 76.8065 147.822 75.9438C148.895 76.3728 149.928 76.9511 150.992 77.3896C152.365 77.9537 153.773 78.4467 155.181 78.9183C158.072 79.8877 160.966 80.8286 163.845 81.8288C164.67 82.115 166.545 89.1703 167.018 90.2865L167.032 90.3185C167.272 90.8565 167.602 91.4467 167.419 92.0581C167.016 93.4091 164.876 94.4093 163.814 95.1724L162.723 95.9584V95.9584L161.296 96.9889C160.71 97.4074 160.17 97.7275 159.404 97.488C159.401 97.4857 159.399 97.4857 159.397 97.4857C160.052 100.522 160.371 110.341 160.468 112.064C160.553 113.564 160.995 115.487 160.292 116.854C160.126 117.179 159.694 117.435 159.325 117.409C157.72 117.288 156.115 117.169 154.509 117.051C154.079 117.018 153.687 116.774 153.569 116.337L153.564 116.314V116.314C153.512 116.328 153.453 116.318 153.403 116.266C153.315 116.179 153.225 116.093 153.132 116.01C151.018 114.129 147.712 113.664 145.105 114.643C143.737 115.155 142.181 116.017 141.217 117.136C140.146 118.378 139.916 120.113 139.913 121.699C139.908 124.756 141.015 127.851 143.273 129.973C145.349 131.92 148.026 132.487 150.72 133.044L151.009 133.104C151.624 133.232 151.819 134.146 151.355 134.53C152.588 135.734 153.652 137.171 154.69 138.496C156.068 140.253 157.386 142.08 158.668 143.912L159.287 144.798C161.492 147.939 164.685 152.266 163.296 156.193C163.111 156.722 162.337 156.911 162.035 156.357C161.045 154.532 160.491 152.522 159.551 150.675C158.627 148.865 157.478 147.187 156.338 145.509L155.68 144.536C154.585 142.912 153.501 141.271 152.495 139.598L151.795 138.439C151.137 137.346 150.486 136.215 150.002 135.04C146.76 135.82 143.235 134.085 140.958 131.774C138.094 128.863 136.748 124.576 137.118 120.544C137.313 118.435 137.937 116.394 139.486 114.877C139.642 114.726 139.806 114.581 139.975 114.437C139.916 114.406 139.866 114.358 139.842 114.302C138.804 111.841 138.583 108.91 138.495 106.26C138.403 103.52 138.462 100.773 138.671 98.0379C139.054 93.0228 139.961 88.0337 141.4 83.2129C143.53 76.0884 147.19 69.1132 153.037 64.3327C159.272 59.234 167.625 57.3432 175.562 57.3565ZM144.525 119.672C145.406 119.273 146.78 119.984 147.564 120.436L147.615 120.466C149.93 121.81 151.579 124.1 152.341 126.636C152.83 128.271 150.082 128.923 149.85 127.321C149.66 126.015 149.223 124.792 148.503 123.699C148.332 123.756 148.166 123.829 148.017 123.924C147.444 124.294 147.111 124.929 146.316 124.834C145.727 124.766 145.124 124.358 145.164 123.685C145.228 122.573 146.126 122.13 147.088 122.073C146.951 121.95 146.812 121.829 146.67 121.712L146.515 121.588C146.339 121.461 144.457 120.165 144.403 120.499L144.402 120.518C144.404 120.651 144.226 120.727 144.136 120.627C143.772 120.239 144.11 119.862 144.525 119.672Z" fill="black"/>
<path fill-rule="evenodd" clip-rule="evenodd" d="M203.327 143.666C201.577 144.172 199.699 144.217 197.916 143.695C196.299 143.221 194.638 142.178 193.447 140.799C192.39 139.573 191.705 138.084 191.732 136.494C191.735 136.313 191.8 136.161 191.9 136.044C192.008 135.917 192.158 135.83 192.319 135.792C192.485 135.754 192.66 135.767 192.809 135.835C192.945 135.896 193.06 136 193.133 136.152C193.316 136.392 193.498 136.628 193.681 136.858C195.152 138.671 196.576 140.026 198.788 140.511C199.988 140.775 201.187 140.658 202.287 140.256C203.464 139.825 204.528 139.068 205.362 138.099C205.739 137.661 206.184 137.483 206.619 137.48C207.112 137.476 207.6 137.705 207.967 138.07C208.328 138.429 208.569 138.918 208.591 139.428C208.61 139.876 208.464 140.344 208.074 140.762C206.79 142.138 205.127 143.146 203.327 143.666ZM203.273 120.962C205.066 122.05 207.799 124.587 205.87 127.284C203.599 129.662 200.329 126.935 198.718 125.702C197.224 124.747 195.545 127.204 196.932 128.32C208.574 136.923 213.299 121.247 204.18 119.683C203.176 119.511 202.803 120.626 203.273 120.962ZM186.497 116.175C185.921 115.807 185.243 115.681 184.491 116.022C183.904 116.289 182.874 117.177 182.157 118.345C181.667 119.144 181.319 120.082 181.392 121.058C181.408 121.285 181.324 121.452 181.192 121.576C181.087 121.673 180.936 121.745 180.759 121.767C180.608 121.786 180.44 121.769 180.303 121.726C180.042 121.645 179.904 121.476 179.852 121.339C179.35 120.008 179.566 118.524 180.129 117.185C180.888 115.378 182.266 113.864 183.169 113.376C184.715 112.54 186.538 112.502 188.086 113.353C189.403 114.078 190.227 115.247 191.046 116.439C191.22 116.693 191.393 116.944 191.572 117.191C191.93 117.687 191.966 118.178 191.827 118.599C191.673 119.065 191.282 119.459 190.792 119.665C190.339 119.856 189.814 119.883 189.349 119.687C188.956 119.522 188.596 119.199 188.368 118.652C187.984 117.732 187.344 116.716 186.497 116.175V116.175ZM215.771 118.224C215.376 118.429 215.067 118.491 214.629 118.36C214.387 118.288 214.148 118.149 213.96 117.962C213.775 117.776 213.641 117.546 213.589 117.29C213.461 116.659 213.115 116.069 212.622 115.684C212.2 115.354 211.668 115.18 211.079 115.278C210.442 115.384 209.835 115.792 209.418 116.272C209.278 116.433 209.169 116.616 209.059 116.797C208.853 117.136 208.653 117.451 208.369 117.7C208.261 117.795 208.099 117.861 207.942 117.861C207.878 117.861 207.814 117.85 207.752 117.831C207.118 117.196 206.996 116.715 207.017 116.237C207.038 115.737 207.236 115.23 207.556 114.757C208.306 113.647 209.73 112.737 210.69 112.531C212.006 112.249 213.313 112.588 214.361 113.321C215.439 114.076 216.237 115.247 216.486 116.568C216.546 116.886 216.521 117.229 216.4 117.527C216.281 117.817 216.074 118.066 215.771 118.224ZM189.399 104.344C188.609 105.112 187.675 105.231 186.729 105.337C186.204 105.396 185.784 105.444 185.372 105.537C184.237 105.793 183.116 106.177 182.093 106.732C181.024 107.311 179.858 108.01 179.02 108.905C178.821 109.118 178.633 109.342 178.445 109.566C178.273 109.77 178.108 109.967 177.933 110.156C177.733 110.374 177.543 110.602 177.354 110.83C177.238 111.022 177.214 111.069 177.191 111.119C177.155 111.192 177.114 111.275 177.067 111.364C177.003 111.485 176.927 111.618 176.848 111.739C176.717 111.96 176.646 112.02 176.585 112.047C176.484 112.092 176.388 112.115 176.295 112.103C176.208 112.091 176.126 112.049 176.044 111.981C175.639 111.639 175.519 111.078 175.532 110.483C175.55 109.579 175.884 108.578 176.192 107.963C176.908 106.534 177.901 105.049 179.095 103.982C180.457 102.765 181.947 101.843 183.659 101.208C184.723 100.813 185.954 100.45 187.113 100.496C187.948 100.529 188.744 100.777 189.402 101.395C189.806 101.774 189.999 102.314 189.999 102.853C189.999 103.403 189.798 103.956 189.399 104.344ZM217.377 111.375C217.327 111.457 217.257 111.514 217.18 111.548C217.099 111.584 217.008 111.594 216.922 111.579C216.835 111.565 216.753 111.526 216.688 111.466C216.625 111.409 216.578 111.333 216.556 111.24C216.032 108.942 215.014 107.232 212.841 106.129C211.773 105.587 210.543 105.242 209.38 104.968C209.042 104.888 208.685 104.836 208.325 104.784C207.197 104.619 206.062 104.431 205.327 103.522C204.884 102.974 204.698 102.273 204.803 101.632C204.902 101.029 205.255 100.476 205.897 100.144C207.496 99.3189 209.483 100.129 211.098 100.818C211.218 100.869 211.335 100.92 211.45 100.968C213.029 101.633 214.469 102.511 215.653 103.767C216.592 104.763 217.463 106.235 217.813 107.75C218.105 109.011 218.036 110.297 217.377 111.375Z" fill="black"/>
</svg>
